<svg width="63" height="63" viewBox="0 0 63 63" fill="none" xmlns="http://www.w3.org/2000/svg">
<path fill-rule="evenodd" clip-rule="evenodd" d="M27.6631 13.2954C22.1885 10.2777 17.3399 11.6963 13.3077 16.4925C9.4182 21.1206 12.071 29.464 13.9766 35.4624C14.4309 36.8922 14.8436 38.1896 15.1149 39.2705C16.5221 44.8855 17.8699 48.3857 20.9404 50.9186C22.4611 52.1727 24.1863 50.017 26.0061 47.7438C27.5836 45.7723 29.2318 43.7118 30.8813 43.7069C32.503 43.7019 34.1259 45.7599 35.682 47.7314C37.4778 50.0071 39.1841 52.1715 40.696 50.9186C43.0433 48.9768 44.1072 47.5521 45.397 43.5523C46.8016 39.1901 49.072 33.9733 50.8767 27.9601C52.1462 23.7302 52.2977 19.4213 48.6391 15.2644C43.4144 9.32781 36.1742 12.3951 32.8033 14.3578L37.3693 18.1919C37.4953 18.2976 37.5987 18.4266 37.6738 18.5716C37.7489 18.7165 37.7941 18.8745 37.8069 19.0365C37.8197 19.1986 37.7997 19.3615 37.7483 19.516C37.6968 19.6705 37.6148 19.8136 37.5069 19.937C37.399 20.0604 37.2673 20.1618 37.1195 20.2354C36.9716 20.309 36.8104 20.3533 36.645 20.3658C36.4797 20.3783 36.3134 20.3588 36.1557 20.3084C35.9981 20.2579 35.8521 20.1775 35.7262 20.0718L27.6631 13.2954Z" fill="#0052CC"/>
</svg>
