<svg width="75" height="75" viewBox="0 0 75 75" fill="none" xmlns="http://www.w3.org/2000/svg">
<path d="M37.5 12C23.7151 12 12.5 23.2163 12.5 37C12.5 50.8053 23.6947 62 37.5 62C51.2849 62 62.5 50.7849 62.5 37C62.5 23.1935 51.3065 12 37.5 12ZM48.7981 38.3221C48.7981 40.5567 48.1355 42.741 46.894 44.599C45.6526 46.4569 43.888 47.9051 41.8236 48.7602C39.7591 49.6153 37.4875 49.839 35.2959 49.4031C33.1042 48.9672 31.0911 47.8911 29.5111 46.3111C27.931 44.731 26.855 42.7179 26.419 40.5263C25.9831 38.3346 26.2068 36.063 27.0619 33.9985C27.9171 31.9341 29.3652 30.1696 31.2231 28.9281C33.0811 27.6867 35.2655 27.024 37.5 27.024H38.006L35.1214 24.1394L37.5 21.7596L44.6875 28.9471L37.5 36.1346L35.1202 33.7548L38.476 30.399C38.1875 30.3894 37.8606 30.3894 37.5 30.3894C35.9311 30.3894 34.3974 30.8547 33.0928 31.7263C31.7883 32.598 30.7716 33.8369 30.1711 35.2864C29.5707 36.7359 29.4136 38.3309 29.7197 39.8697C30.0258 41.4085 30.7813 42.822 31.8907 43.9314C33.0001 45.0408 34.4136 45.7963 35.9524 46.1024C37.4912 46.4085 39.0862 46.2514 40.5357 45.651C41.9852 45.0506 43.2241 44.0338 44.0958 42.7293C44.9674 41.4248 45.4327 39.8911 45.4327 38.3221V36.6394H48.7981V38.3221Z" fill="#0052CC"/>
</svg>
