<svg width="58" height="58" viewBox="0 0 58 58" fill="none" xmlns="http://www.w3.org/2000/svg">
<g clip-path="url(#clip0_1358_43)">
<path d="M21.7501 19.3331H36.2501C36.891 19.3331 37.5057 19.0785 37.9589 18.6253C38.4121 18.1721 38.6667 17.5574 38.6667 16.9164C38.6667 16.2755 38.4121 15.6608 37.9589 15.2076C37.5057 14.7544 36.891 14.4998 36.2501 14.4998H21.7501C21.1091 14.4998 20.4944 14.7544 20.0412 15.2076C19.588 15.6608 19.3334 16.2755 19.3334 16.9164C19.3334 17.5574 19.588 18.1721 20.0412 18.6253C20.4944 19.0785 21.1091 19.3331 21.7501 19.3331ZM22.8859 10.8748C22.9215 11.1695 23.0644 11.4408 23.2872 11.6369C23.5101 11.833 23.7974 11.9402 24.0942 11.9381H33.8334C34.1288 11.9351 34.4133 11.8261 34.6351 11.6309C34.8569 11.4357 35.0012 11.1674 35.0417 10.8748C35.5731 8.30594 36.5549 5.85142 37.9417 3.62476C38.0698 3.40875 38.1226 3.1564 38.092 2.90717C38.0614 2.65794 37.949 2.42587 37.7726 2.24726C37.6268 2.05527 37.427 1.91125 37.1987 1.83374C36.9705 1.75622 36.7242 1.74874 36.4917 1.81226L31.9967 3.74559C31.9214 3.78198 31.8387 3.80088 31.7551 3.80088C31.6714 3.80088 31.5888 3.78198 31.5134 3.74559C31.3635 3.68979 31.2418 3.57681 31.1751 3.43143L30.1117 0.748926C30.0189 0.530955 29.864 0.345091 29.6663 0.214451C29.4687 0.0838115 29.237 0.0141602 29.0001 0.0141602C28.7631 0.0141602 28.5314 0.0838115 28.3338 0.214451C28.1361 0.345091 27.9812 0.530955 27.8884 0.748926L26.8251 3.43143C26.7583 3.57681 26.6366 3.68979 26.4867 3.74559C26.4114 3.78198 26.3287 3.80088 26.2451 3.80088C26.1614 3.80088 26.0788 3.78198 26.0034 3.74559L21.5084 1.81226C21.2779 1.71903 21.0242 1.69917 20.7821 1.75539C20.5399 1.81162 20.3209 1.94119 20.1551 2.12643C19.9786 2.30504 19.8662 2.5371 19.8356 2.78633C19.805 3.03557 19.8579 3.28791 19.9859 3.50393C21.3859 5.76749 22.3682 8.26404 22.8859 10.8748ZM37.3134 22.0398C37.0641 21.8483 36.7577 21.7461 36.4434 21.7498H21.5567C21.2424 21.7461 20.936 21.8483 20.6867 22.0398C14.5242 26.8731 7.63672 35.0898 7.63672 42.3398C7.63672 52.5623 13.3401 57.9998 29.0001 57.9998C44.66 57.9998 50.3634 52.5623 50.3634 42.3398C50.3634 35.0898 43.5 26.7523 37.3134 22.0398ZM31.4167 48.6473C31.2758 48.6748 31.1486 48.7498 31.0563 48.8598C30.964 48.9697 30.9121 49.1079 30.9092 49.2514V50.1456C30.9092 50.6263 30.7183 51.0873 30.3783 51.4272C30.0384 51.7671 29.5774 51.9581 29.0967 51.9581C28.616 51.9581 28.155 51.7671 27.8151 51.4272C27.4752 51.0873 27.2842 50.6263 27.2842 50.1456V49.3723C27.2842 49.212 27.2206 49.0584 27.1073 48.9451C26.994 48.8317 26.8403 48.7681 26.6801 48.7681H25.2542C24.7735 48.7681 24.3125 48.5771 23.9726 48.2372C23.6327 47.8973 23.4417 47.4363 23.4417 46.9556C23.4417 46.4749 23.6327 46.0139 23.9726 45.674C24.3125 45.3341 24.7735 45.1431 25.2542 45.1431H30.4501C30.8358 45.1564 31.2136 45.0315 31.5153 44.7908C31.8171 44.5502 32.0229 44.2097 32.0958 43.8307C32.1687 43.4517 32.1038 43.0591 31.9128 42.7237C31.7219 42.3883 31.4174 42.1322 31.0542 42.0014L25.7859 39.8989C24.7241 39.5012 23.8206 38.7686 23.2121 37.8118C22.6037 36.855 22.3233 35.7261 22.4134 34.5958C22.5035 33.4655 22.9592 32.3953 23.7115 31.547C24.4639 30.6987 25.472 30.1184 26.5834 29.8939C26.7243 29.8663 26.8515 29.7914 26.9438 29.6814C27.0361 29.5715 27.088 29.4333 27.0909 29.2898V28.3956C27.0909 27.9149 27.2818 27.4539 27.6218 27.114C27.9617 26.7741 28.4227 26.5831 28.9034 26.5831C29.3841 26.5831 29.8451 26.7741 30.185 27.114C30.5249 27.4539 30.7159 27.9149 30.7159 28.3956V29.1689C30.7159 29.3292 30.7795 29.4828 30.8928 29.5961C31.0061 29.7094 31.1598 29.7731 31.3201 29.7731H32.7459C33.2266 29.7731 33.6876 29.9641 34.0275 30.304C34.3674 30.6439 34.5584 31.1049 34.5584 31.5856C34.5584 32.0663 34.3674 32.5273 34.0275 32.8672C33.6876 33.2071 33.2266 33.3981 32.7459 33.3981H27.6467C27.261 33.3848 26.8832 33.5097 26.5815 33.7504C26.2797 33.991 26.0738 34.3315 26.0009 34.7105C25.9281 35.0895 25.993 35.4821 26.1839 35.8175C26.3749 36.1529 26.6794 36.409 27.0426 36.5398L32.3109 38.6423C33.3724 39.048 34.2725 39.7892 34.8744 40.753C35.4764 41.7169 35.7474 42.8509 35.6462 43.9828C35.5451 45.1147 35.0773 46.1827 34.3139 47.0245C33.5506 47.8664 32.5333 48.4361 31.4167 48.6473Z" fill="#0052CC"/>
</g>
<defs>
<clipPath id="clip0_1358_43">
<rect width="58" height="58" fill="white"/>
</clipPath>
</defs>
</svg>
