<svg width="44" height="55" viewBox="0 0 44 55" fill="none" xmlns="http://www.w3.org/2000/svg">
<path d="M9.625 0C11.0837 0 12.4826 0.579462 13.5141 1.61091C14.5455 2.64236 15.125 4.04131 15.125 5.5C15.125 6.95869 14.5455 8.35764 13.5141 9.38909C12.4826 10.4205 11.0837 11 9.625 11C8.16631 11 6.76736 10.4205 5.73591 9.38909C4.70446 8.35764 4.125 6.95869 4.125 5.5C4.125 4.04131 4.70446 2.64236 5.73591 1.61091C6.76736 0.579462 8.16631 0 9.625 0ZM5.5 13.75H13.75C15.2087 13.75 16.6076 14.3295 17.6391 15.3609C18.6705 16.3924 19.25 17.7913 19.25 19.25V34.375H15.125V55H4.125V34.375H0V19.25C0 17.7913 0.579462 16.3924 1.61091 15.3609C2.64236 14.3295 4.04131 13.75 5.5 13.75ZM34.375 0C35.8337 0 37.2326 0.579462 38.2641 1.61091C39.2955 2.64236 39.875 4.04131 39.875 5.5C39.875 6.95869 39.2955 8.35764 38.2641 9.38909C37.2326 10.4205 35.8337 11 34.375 11C32.9163 11 31.5174 10.4205 30.4859 9.38909C29.4545 8.35764 28.875 6.95869 28.875 5.5C28.875 4.04131 29.4545 2.64236 30.4859 1.61091C31.5174 0.579462 32.9163 0 34.375 0ZM30.25 13.75H38.5C39.9587 13.75 41.3576 14.3295 42.3891 15.3609C43.4205 16.3924 44 17.7913 44 19.25V34.375H39.875V55H28.875V34.375H24.75V19.25C24.75 17.7913 25.3295 16.3924 26.3609 15.3609C27.3924 14.3295 28.7913 13.75 30.25 13.75Z" fill="#0052CC"/>
</svg>
