<svg width="44" height="41" viewBox="0 0 44 41" fill="none" xmlns="http://www.w3.org/2000/svg">
<path d="M33.0417 0H10.2917C7.56215 0 4.94442 1.0843 3.01436 3.01436C1.0843 4.94442 0 7.56215 0 10.2917V29.7917C0 31.1432 0.266202 32.4815 0.783407 33.7301C1.30061 34.9788 2.05869 36.1133 3.01436 37.069C4.94442 38.999 7.56215 40.0833 10.2917 40.0833H33.0417C35.7694 40.0776 38.3838 38.9915 40.3127 37.0627C42.2415 35.1338 43.3276 32.5194 43.3333 29.7917V10.2917C43.3276 7.56391 42.2415 4.94951 40.3127 3.02068C38.3838 1.09186 35.7694 0.0057246 33.0417 0ZM25.1333 18.0267C24.0673 18.6346 22.8613 18.9543 21.6342 18.9543C20.407 18.9543 19.201 18.6346 18.135 18.0267L3.29333 9.51167C3.48524 7.78982 4.30518 6.19915 5.59632 5.04393C6.88746 3.8887 8.55916 3.25 10.2917 3.25H33.0417C34.7728 3.25475 36.442 3.89509 37.7321 5.04942C39.0222 6.20375 39.8435 7.79169 40.04 9.51167L25.1333 18.0267Z" fill="#0052CC"/>
</svg>
