<svg width="35" height="42" viewBox="0 0 35 42" fill="none" xmlns="http://www.w3.org/2000/svg">
<path d="M29.8741 5.09478C23.0401 -1.69826 11.9599 -1.69826 5.12589 5.09478C3.50331 6.69662 2.214 8.61007 1.33373 10.7226C0.453462 12.8352 0 15.1043 0 17.3965C0 19.6887 0.453462 21.9578 1.33373 24.0704C2.214 26.183 3.50331 28.0964 5.12589 29.6983L17.4989 42L29.8741 29.6983C31.4967 28.0964 32.786 26.183 33.6663 24.0704C34.5465 21.9578 35 19.6887 35 17.3965C35 15.1043 34.5465 12.8352 33.6663 10.7226C32.786 8.61007 31.4967 6.69662 29.8741 5.09478ZM17.4989 23.2103C16.0376 23.2103 14.666 22.6355 13.6312 21.5922C12.6069 20.5548 12.0316 19.1493 12.0316 17.6839C12.0316 16.2185 12.6069 14.8129 13.6312 13.7756C14.6638 12.7322 16.0376 12.1575 17.4989 12.1575C18.9602 12.1575 20.334 12.7322 21.3666 13.7756C22.3909 14.8129 22.9662 16.2185 22.9662 17.6839C22.9662 19.1493 22.3909 20.5548 21.3666 21.5922C20.334 22.6355 18.9602 23.2103 17.4989 23.2103Z" fill="#0052CC"/>
</svg>
