<?xml version="1.0" encoding="UTF-8"?>
<svg id="Layer_2" data-name="Layer 2" xmlns="http://www.w3.org/2000/svg" xmlns:xlink="http://www.w3.org/1999/xlink" viewBox="0 0 900.15 160.62">
  <defs>
    <style>
      .cls-1 {
        fill: #226dfb;
      }

      .cls-2 {
        fill: #1563ea;
      }

      .cls-3 {
        fill: #1462e7;
      }

      .cls-4 {
        fill: #2570ff;
      }

      .cls-5 {
        fill: #0e5de0;
      }

      .cls-6 {
        fill: #236efc;
      }

      .cls-7 {
        fill: #1866ee;
      }

      .cls-8 {
        fill: #1563e8;
      }

      .cls-9 {
        fill: #0455d1;
      }

      .cls-10 {
        fill: #0c5bdc;
      }

      .cls-11 {
        fill: #1f6bf7;
      }

      .cls-12 {
        fill: #226efc;
      }

      .cls-13 {
        fill: #216cf9;
      }

      .cls-14 {
        fill: #115fe3;
      }

      .cls-15 {
        fill: #1e6bf6;
      }

      .cls-16 {
        fill: #0a5ada;
      }

      .cls-17 {
        fill: #fff;
      }

      .cls-18 {
        fill: #2470fe;
      }

      .cls-19 {
        fill: #1260e5;
      }

      .cls-20 {
        fill: #0859d7;
      }

      .cls-21 {
        fill: #1966ee;
      }

      .cls-22 {
        fill: #246ffe;
      }

      .cls-23 {
        fill: #1362e7;
      }

      .cls-24 {
        fill: none;
      }

      .cls-25 {
        fill: #0556d2;
      }

      .cls-26 {
        fill: #0253cf;
      }

      .cls-27 {
        fill: #1e6af5;
      }

      .cls-28 {
        fill: #1261e5;
      }

      .cls-29 {
        clip-path: url(#clippath-1);
      }

      .cls-30 {
        fill: #1b68f1;
      }

      .cls-31 {
        fill: #1160e4;
      }

      .cls-32 {
        fill: #1663ea;
      }

      .cls-33 {
        fill: #0657d5;
      }

      .cls-34 {
        fill: #0758d6;
      }

      .cls-35 {
        fill: #1664eb;
      }

      .cls-36 {
        fill: #236ffd;
      }

      .cls-37 {
        fill: #0f5ee0;
      }

      .cls-38 {
        fill: #1c69f3;
      }

      .cls-39 {
        fill: #1765ec;
      }

      .cls-40 {
        fill: #1160e3;
      }

      .cls-41 {
        fill: #0253ce;
      }

      .cls-42 {
        fill: #206cf9;
      }

      .cls-43 {
        fill: #1d6af5;
      }

      .cls-44 {
        fill: #236ffc;
      }

      .cls-45 {
        fill: #095ad9;
      }

      .cls-46 {
        fill: #0e5ddf;
      }

      .cls-47 {
        fill: #1966ef;
      }

      .cls-48 {
        fill: #004ec4;
      }

      .cls-49 {
        fill: #0556d4;
      }

      .cls-50 {
        fill: #105fe1;
      }

      .cls-51 {
        fill: #0052cc;
      }

      .cls-52 {
        fill: #216dfa;
      }

      .cls-53 {
        fill: #1a67f0;
      }

      .cls-54 {
        fill: #105fe2;
      }

      .cls-55 {
        fill: #246ffd;
      }

      .cls-56 {
        fill: #0858d7;
      }

      .cls-57 {
        fill: #0c5cdd;
      }

      .cls-58 {
        fill: #0b5bdb;
      }

      .cls-59 {
        fill: #1462e8;
      }

      .cls-60 {
        fill: #1361e6;
      }

      .cls-61 {
        fill: #0d5dde;
      }

      .cls-62 {
        fill: #1e6af6;
      }

      .cls-63 {
        fill: #0959d8;
      }

      .cls-64 {
        fill: #226efb;
      }

      .cls-65 {
        fill: #1d69f4;
      }

      .cls-66 {
        fill: #1563e9;
      }

      .cls-67 {
        fill: #1865ed;
      }

      .cls-68 {
        fill: #0153cd;
      }

      .cls-69 {
        fill: #1f6bf6;
      }

      .cls-70 {
        fill: #0f5ee1;
      }

      .cls-71 {
        clip-path: url(#clippath);
      }

      .cls-72 {
        fill: #0254cf;
      }

      .cls-73 {
        fill: #206cf8;
      }

      .cls-74 {
        fill: #1b68f2;
      }

      .cls-75 {
        fill: #0354d0;
      }
    </style>
    <clipPath id="clippath">
      <path class="cls-24" d="M721.13,48.14h15.69v75.46h-15.77l-.6-10.94c-2.21,3.87-5.21,6.99-8.98,9.36-3.77,2.36-8.22,3.55-13.36,3.55-5.53,0-10.74-1.04-15.62-3.13-4.88-2.09-9.17-4.99-12.87-8.72-3.7-3.72-6.58-8.01-8.64-12.87-2.06-4.85-3.09-10.07-3.09-15.66s1.01-10.45,3.02-15.2c2.01-4.75,4.8-8.92,8.38-12.49,3.57-3.57,7.71-6.38,12.41-8.41,4.7-2.04,9.75-3.06,15.13-3.06s10.32,1.25,14.53,3.74c4.2,2.49,7.68,5.67,10.45,9.55l-.68-11.17ZM697.74,110.39c4.43,0,8.3-1.09,11.62-3.28,3.32-2.19,5.9-5.14,7.73-8.87,1.84-3.72,2.75-7.85,2.75-12.37s-.93-8.73-2.79-12.45c-1.86-3.72-4.44-6.68-7.73-8.87-3.29-2.19-7.16-3.28-11.58-3.28s-8.38,1.11-12,3.32c-3.62,2.21-6.49,5.18-8.6,8.9-2.11,3.72-3.17,7.85-3.17,12.37s1.09,8.72,3.28,12.41c2.19,3.7,5.08,6.64,8.68,8.83,3.6,2.19,7.53,3.28,11.81,3.28Z"/>
    </clipPath>
    <clipPath id="clippath-1">
      <path class="cls-24" d="M759.91,37.2c-2.41,0-4.43-.78-6.04-2.34-1.61-1.56-2.41-3.52-2.41-5.89s.8-4.26,2.41-5.85c1.61-1.58,3.6-2.38,5.96-2.38s4.27.79,5.89,2.38c1.61,1.58,2.41,3.53,2.41,5.85s-.79,4.33-2.38,5.89c-1.58,1.56-3.53,2.34-5.85,2.34ZM751.91,48.14h15.69v75.46h-15.69V48.14Z"/>
    </clipPath>
  </defs>
  <g id="Layer_1-2" data-name="Layer 1">
    <g>
      <g class="cls-71">
        <polygon class="cls-65" points="719.37 110.39 719.85 110.23 719.85 110.39 719.37 110.39"/>
        <polygon class="cls-38" points="715.39 110.39 719.85 108.89 719.85 110.23 719.37 110.39 715.39 110.39"/>
        <polygon class="cls-74" points="711.42 110.39 719.85 107.55 719.85 108.89 715.39 110.39 711.42 110.39"/>
        <polygon class="cls-30" points="707.45 110.39 719.85 106.21 719.85 107.55 711.42 110.39 707.45 110.39"/>
        <polygon class="cls-53" points="703.48 110.39 719.85 104.86 719.85 106.21 707.45 110.39 703.48 110.39"/>
        <polygon class="cls-47" points="699.51 110.39 719.85 103.52 719.85 104.86 703.48 110.39 699.51 110.39"/>
        <polygon class="cls-7" points="695.54 110.39 719.85 102.18 719.85 103.52 699.51 110.39 695.54 110.39"/>
        <polygon class="cls-67" points="691.57 110.39 719.85 100.84 719.85 102.18 695.54 110.39 691.57 110.39"/>
        <polygon class="cls-39" points="687.6 110.39 719.85 99.5 719.85 100.84 691.57 110.39 687.6 110.39"/>
        <polygon class="cls-35" points="683.62 110.39 719.85 98.16 719.85 99.5 687.6 110.39 683.62 110.39"/>
        <polygon class="cls-2" points="679.65 110.39 719.85 96.82 719.85 98.16 683.62 110.39 679.65 110.39"/>
        <polygon class="cls-8" points="678.29 110.39 678.02 109.6 719.85 95.48 719.85 96.82 679.65 110.39 678.29 110.39"/>
        <polygon class="cls-3" points="678.02 109.6 677.62 108.4 719.85 94.14 719.85 95.48 678.02 109.6"/>
        <polygon class="cls-60" points="677.62 108.4 677.21 107.19 719.85 92.8 719.85 94.14 677.62 108.4"/>
        <polygon class="cls-28" points="677.21 107.19 676.8 105.99 719.85 91.46 719.85 92.8 677.21 107.19"/>
        <polygon class="cls-31" points="676.8 105.99 676.4 104.78 719.85 90.11 719.85 91.46 676.8 105.99"/>
        <polygon class="cls-14" points="676.4 104.78 675.99 103.58 719.85 88.77 719.85 90.11 676.4 104.78"/>
        <polygon class="cls-54" points="675.99 103.58 675.58 102.38 719.85 87.43 719.85 88.77 675.99 103.58"/>
        <polygon class="cls-70" points="675.58 102.38 675.18 101.17 719.85 86.09 719.85 87.43 675.58 102.38"/>
        <polygon class="cls-5" points="675.18 101.17 674.77 99.97 719.85 84.75 719.85 86.09 675.18 101.17"/>
        <polygon class="cls-61" points="674.77 99.97 674.36 98.77 719.85 83.41 719.85 84.75 674.77 99.97"/>
        <polygon class="cls-57" points="674.36 98.77 673.97 97.59 673.97 97.56 719.85 82.07 719.85 83.41 674.36 98.77"/>
        <polygon class="cls-10" points="673.97 96.22 719.85 80.73 719.85 82.07 673.97 97.56 673.97 96.22"/>
        <polygon class="cls-58" points="673.97 94.88 719.85 79.39 719.85 80.73 673.97 96.22 673.97 94.88"/>
        <polygon class="cls-16" points="673.97 93.54 719.85 78.05 719.85 79.39 673.97 94.88 673.97 93.54"/>
        <polygon class="cls-63" points="673.97 92.2 719.85 76.71 719.85 78.05 673.97 93.54 673.97 92.2"/>
        <polygon class="cls-20" points="673.97 90.85 719.85 75.36 719.85 76.71 673.97 92.2 673.97 90.85"/>
        <polygon class="cls-34" points="673.97 89.51 719.85 74.02 719.85 75.36 673.97 90.85 673.97 89.51"/>
        <polygon class="cls-33" points="673.97 88.17 719.55 72.78 719.85 73.65 719.85 74.02 673.97 89.51 673.97 88.17"/>
        <polygon class="cls-49" points="673.97 86.83 719.15 71.58 719.55 72.78 673.97 88.17 673.97 86.83"/>
        <polygon class="cls-25" points="673.97 85.49 718.74 70.37 719.15 71.58 673.97 86.83 673.97 85.49"/>
        <polygon class="cls-9" points="673.97 84.15 718.33 69.17 718.74 70.37 673.97 85.49 673.97 84.15"/>
        <polygon class="cls-75" points="673.97 82.81 717.93 67.97 718.33 69.17 673.97 84.15 673.97 82.81"/>
        <polygon class="cls-26" points="673.97 81.47 717.52 66.76 717.93 67.97 673.97 82.81 673.97 81.47"/>
        <polygon class="cls-68" points="673.97 80.13 717.12 65.56 717.52 66.76 673.97 81.47 673.97 80.13"/>
        <polygon class="cls-51" points="673.97 78.79 716.71 64.36 717.12 65.56 673.97 80.13 673.97 78.79"/>
        <polygon class="cls-51" points="715.67 61.27 716.71 64.36 673.97 78.79 673.97 61.27 715.67 61.27"/>
        <polygon class="cls-4" points="734.02 125.56 736.82 124.61 736.82 125.56 734.02 125.56"/>
        <polygon class="cls-4" points="730.05 125.56 736.82 123.27 736.82 124.61 734.02 125.56 730.05 125.56"/>
        <polygon class="cls-22" points="726.07 125.56 736.82 121.93 736.82 123.27 730.05 125.56 726.07 125.56"/>
        <polygon class="cls-55" points="722.1 125.56 736.82 120.59 736.82 121.93 726.07 125.56 722.1 125.56"/>
        <polygon class="cls-36" points="718.13 125.56 736.82 119.25 736.82 120.59 722.1 125.56 718.13 125.56"/>
        <polygon class="cls-6" points="714.16 125.56 736.82 117.9 736.82 119.25 718.13 125.56 714.16 125.56"/>
        <polygon class="cls-64" points="710.19 125.56 736.82 116.56 736.82 117.9 714.16 125.56 710.19 125.56"/>
        <polygon class="cls-1" points="706.22 125.56 736.82 115.22 736.82 116.56 710.19 125.56 706.22 125.56"/>
        <polygon class="cls-52" points="702.25 125.56 736.82 113.88 736.82 115.22 706.22 125.56 702.25 125.56"/>
        <polygon class="cls-13" points="698.27 125.56 736.82 112.54 736.82 113.88 702.25 125.56 698.27 125.56"/>
        <polygon class="cls-73" points="694.3 125.56 736.82 111.2 736.82 112.54 698.27 125.56 694.3 125.56"/>
        <polygon class="cls-11" points="690.33 125.56 736.82 109.86 736.82 111.2 694.3 125.56 690.33 125.56"/>
        <polygon class="cls-69" points="686.36 125.56 736.82 108.52 736.82 109.86 690.33 125.56 686.36 125.56"/>
        <polygon class="cls-62" points="682.39 125.56 736.82 107.18 736.82 108.52 686.36 125.56 682.39 125.56"/>
        <polygon class="cls-43" points="678.42 125.56 736.82 105.84 736.82 107.18 682.39 125.56 678.42 125.56"/>
        <polygon class="cls-65" points="674.45 125.56 736.82 104.5 736.82 105.84 678.42 125.56 674.45 125.56"/>
        <polygon class="cls-38" points="670.47 125.56 736.82 103.15 736.82 104.5 674.45 125.56 670.47 125.56"/>
        <polygon class="cls-74" points="666.8 125.56 666.77 125.47 736.82 101.81 736.82 103.15 670.47 125.56 666.8 125.56"/>
        <polygon class="cls-30" points="666.77 125.47 666.36 124.26 736.82 100.47 736.82 101.81 666.77 125.47"/>
        <polygon class="cls-53" points="666.36 124.26 665.96 123.06 736.82 99.13 736.82 100.47 666.36 124.26"/>
        <polygon class="cls-47" points="665.96 123.06 665.55 121.86 736.82 97.79 736.82 99.13 665.96 123.06"/>
        <polygon class="cls-7" points="665.55 121.86 665.14 120.65 736.82 96.45 736.82 97.79 665.55 121.86"/>
        <polygon class="cls-67" points="665.14 120.65 664.74 119.45 736.82 95.11 736.82 96.45 665.14 120.65"/>
        <polygon class="cls-39" points="664.74 119.45 664.33 118.24 736.82 93.77 736.82 95.11 664.74 119.45"/>
        <polygon class="cls-35" points="664.33 118.24 663.92 117.04 736.82 92.43 736.82 93.77 664.33 118.24"/>
        <polygon class="cls-2" points="663.92 117.04 663.52 115.84 736.82 91.09 736.82 92.43 663.92 117.04"/>
        <polygon class="cls-8" points="663.52 115.84 663.11 114.63 736.82 89.75 736.82 91.09 663.52 115.84"/>
        <polygon class="cls-3" points="663.11 114.63 662.7 113.43 736.82 88.4 736.82 89.75 663.11 114.63"/>
        <polygon class="cls-60" points="662.7 113.43 662.3 112.23 736.82 87.06 736.82 88.4 662.7 113.43"/>
        <polygon class="cls-28" points="662.3 112.23 661.89 111.02 736.82 85.72 736.82 87.06 662.3 112.23"/>
        <polygon class="cls-31" points="661.89 111.02 661.48 109.82 736.82 84.38 736.82 85.72 661.89 111.02"/>
        <polygon class="cls-14" points="661.48 109.82 661.08 108.62 736.82 83.04 736.82 84.38 661.48 109.82"/>
        <polygon class="cls-54" points="661.08 108.62 660.67 107.41 736.82 81.7 736.82 83.04 661.08 108.62"/>
        <polygon class="cls-70" points="660.67 107.41 660.27 106.21 736.82 80.36 736.82 81.7 660.67 107.41"/>
        <polygon class="cls-5" points="660.27 106.21 659.86 105 736.82 79.02 736.82 80.36 660.27 106.21"/>
        <polygon class="cls-61" points="659.86 105 659.45 103.8 736.82 77.68 736.82 79.02 659.86 105"/>
        <polygon class="cls-57" points="659.45 103.8 659.05 102.6 736.82 76.34 736.82 77.68 659.45 103.8"/>
        <polygon class="cls-10" points="659.05 102.6 658.64 101.39 736.82 75 736.82 76.34 659.05 102.6"/>
        <polygon class="cls-58" points="658.64 101.39 658.23 100.19 736.82 73.66 736.82 75 658.64 101.39"/>
        <polygon class="cls-16" points="658.23 100.19 657.9 99.19 657.9 98.96 736.82 72.31 736.82 73.66 658.23 100.19"/>
        <polygon class="cls-63" points="657.9 97.62 736.82 70.97 736.82 72.31 657.9 98.96 657.9 97.62"/>
        <polygon class="cls-20" points="657.9 96.28 736.82 69.63 736.82 70.97 657.9 97.62 657.9 96.28"/>
        <polygon class="cls-34" points="657.9 94.94 736.82 68.29 736.82 69.63 657.9 96.28 657.9 94.94"/>
        <polygon class="cls-33" points="657.9 93.6 736.82 66.95 736.82 68.29 657.9 94.94 657.9 93.6"/>
        <polygon class="cls-49" points="657.9 92.26 736.82 65.61 736.82 66.95 657.9 93.6 657.9 92.26"/>
        <polygon class="cls-25" points="657.9 90.92 736.82 64.27 736.82 65.61 657.9 92.26 657.9 90.92"/>
        <polygon class="cls-9" points="657.9 89.58 736.82 62.93 736.82 64.27 657.9 90.92 657.9 89.58"/>
        <polygon class="cls-75" points="657.9 88.24 736.82 61.59 736.82 62.93 657.9 89.58 657.9 88.24"/>
        <polygon class="cls-26" points="657.9 86.89 736.82 60.25 736.82 61.59 657.9 88.24 657.9 86.89"/>
        <polygon class="cls-68" points="657.9 85.55 736.82 58.91 736.82 60.25 657.9 86.89 657.9 85.55"/>
        <polygon class="cls-51" points="657.9 84.21 736.82 57.56 736.82 58.91 657.9 85.55 657.9 84.21"/>
        <polygon class="cls-51" points="736.82 57.56 657.9 84.21 657.9 46.03 736.82 46.03 736.82 57.56"/>
      </g>
      <g class="cls-29">
        <polygon class="cls-4" points="751.91 120.34 767.61 115.95 767.61 123.59 751.91 123.59 751.91 120.34"/>
        <polygon class="cls-4" points="751.91 118.69 767.61 114.3 767.61 115.95 751.91 120.34 751.91 118.69"/>
        <polygon class="cls-18" points="751.91 117.04 767.61 112.65 767.61 114.3 751.91 118.69 751.91 117.04"/>
        <polygon class="cls-55" points="751.91 115.39 767.61 111 767.61 112.65 751.91 117.04 751.91 115.39"/>
        <polygon class="cls-44" points="751.91 113.73 767.61 109.34 767.61 111 751.91 115.39 751.91 113.73"/>
        <polygon class="cls-12" points="751.91 112.08 767.61 107.69 767.61 109.34 751.91 113.73 751.91 112.08"/>
        <polygon class="cls-1" points="751.91 110.43 767.61 106.04 767.61 107.69 751.91 112.08 751.91 110.43"/>
        <polygon class="cls-52" points="751.91 108.78 767.61 104.39 767.61 106.04 751.91 110.43 751.91 108.78"/>
        <polygon class="cls-42" points="751.91 107.13 767.61 102.74 767.61 104.39 751.91 108.78 751.91 107.13"/>
        <polygon class="cls-73" points="751.91 105.48 767.61 101.09 767.61 102.74 751.91 107.13 751.91 105.48"/>
        <polygon class="cls-11" points="751.91 103.82 767.61 99.44 767.61 101.09 751.91 105.48 751.91 103.82"/>
        <polygon class="cls-15" points="751.91 102.17 767.61 97.78 767.61 99.44 751.91 103.82 751.91 102.17"/>
        <polygon class="cls-27" points="751.91 100.52 767.61 96.13 767.61 97.78 751.91 102.17 751.91 100.52"/>
        <polygon class="cls-65" points="751.91 98.87 767.61 94.48 767.61 96.13 751.91 100.52 751.91 98.87"/>
        <polygon class="cls-38" points="751.91 97.22 767.61 92.83 767.61 94.48 751.91 98.87 751.91 97.22"/>
        <polygon class="cls-74" points="751.91 95.57 767.61 91.18 767.61 92.83 751.91 97.22 751.91 95.57"/>
        <polygon class="cls-30" points="751.91 93.92 767.61 89.53 767.61 91.18 751.91 95.57 751.91 93.92"/>
        <polygon class="cls-53" points="751.91 92.26 767.61 87.87 767.61 89.53 751.91 93.92 751.91 92.26"/>
        <polygon class="cls-47" points="751.91 90.61 767.61 86.22 767.61 87.87 751.91 92.26 751.91 90.61"/>
        <polygon class="cls-21" points="751.91 88.96 767.61 84.57 767.61 86.22 751.91 90.61 751.91 88.96"/>
        <polygon class="cls-67" points="751.91 87.31 767.61 82.92 767.61 84.57 751.91 88.96 751.91 87.31"/>
        <polygon class="cls-39" points="751.91 85.66 767.61 81.27 767.61 82.92 751.91 87.31 751.91 85.66"/>
        <polygon class="cls-35" points="751.91 84.01 767.61 79.62 767.61 81.27 751.91 85.66 751.91 84.01"/>
        <polygon class="cls-32" points="751.91 82.36 767.61 77.97 767.61 79.62 751.91 84.01 751.91 82.36"/>
        <polygon class="cls-66" points="751.91 80.7 767.61 76.31 767.61 77.97 751.91 82.36 751.91 80.7"/>
        <polygon class="cls-59" points="751.91 79.05 767.61 74.66 767.61 76.31 751.91 80.7 751.91 79.05"/>
        <polygon class="cls-23" points="751.91 77.4 767.61 73.01 767.61 74.66 751.91 79.05 751.91 77.4"/>
        <polygon class="cls-60" points="751.91 75.75 767.61 71.36 767.61 73.01 751.91 77.4 751.91 75.75"/>
        <polygon class="cls-19" points="751.91 74.1 767.61 69.71 767.61 71.36 751.91 75.75 751.91 74.1"/>
        <polygon class="cls-40" points="751.91 72.45 767.61 68.06 767.61 69.71 751.91 74.1 751.91 72.45"/>
        <polygon class="cls-54" points="751.91 70.8 767.61 66.41 767.61 68.06 751.91 72.45 751.91 70.8"/>
        <polygon class="cls-50" points="751.91 69.14 767.61 64.75 767.61 66.41 751.91 70.8 751.91 69.14"/>
        <polygon class="cls-37" points="751.91 67.49 767.61 63.1 767.61 64.75 751.91 69.14 751.91 67.49"/>
        <polygon class="cls-46" points="751.91 65.84 767.61 61.45 767.61 63.1 751.91 67.49 751.91 65.84"/>
        <polygon class="cls-61" points="751.91 64.19 767.61 59.8 767.61 61.45 751.91 65.84 751.91 64.19"/>
        <polygon class="cls-57" points="751.91 62.54 767.61 58.15 767.61 59.8 751.91 64.19 751.91 62.54"/>
        <polygon class="cls-10" points="751.91 60.89 767.61 56.5 767.61 58.15 751.91 62.54 751.91 60.89"/>
        <polygon class="cls-58" points="751.91 59.24 767.61 54.85 767.61 56.5 751.91 60.89 751.91 59.24"/>
        <polygon class="cls-16" points="751.91 57.58 767.61 53.19 767.61 54.85 751.91 59.24 751.91 57.58"/>
        <polygon class="cls-45" points="751.91 55.93 767.61 51.54 767.61 53.19 751.91 57.58 751.91 55.93"/>
        <polygon class="cls-63" points="751.91 54.28 767.61 49.89 767.61 51.54 751.91 55.93 751.91 54.28"/>
        <polygon class="cls-56" points="751.91 52.63 767.61 48.24 767.61 49.89 751.91 54.28 751.91 52.63"/>
        <polygon class="cls-34" points="751.91 50.98 762.06 48.14 767.61 48.14 767.61 48.24 751.91 52.63 751.91 50.98"/>
        <polygon class="cls-33" points="751.91 49.33 756.16 48.14 762.06 48.14 751.91 50.98 751.91 49.33"/>
        <polygon class="cls-49" points="756.16 48.14 751.91 49.33 751.91 48.14 756.16 48.14"/>
        <polygon class="cls-72" points="765.75 37.2 768.14 36.53 768.14 37.2 765.75 37.2"/>
        <polygon class="cls-41" points="759.85 37.2 768.14 34.88 768.14 36.53 765.75 37.2 759.85 37.2"/>
        <polygon class="cls-68" points="753.94 37.2 768.14 33.23 768.14 34.88 759.85 37.2 753.94 37.2"/>
        <polygon class="cls-51" points="751.46 36.24 768.14 31.58 768.14 33.23 753.94 37.2 751.46 37.2 751.46 36.24"/>
        <polygon class="cls-51" points="768.14 31.58 751.46 36.24 751.46 20.75 768.14 20.75 768.14 31.58"/>
      </g>
      <path d="M309.35,17.25v15.69h-33.65v89.94h-15.69V32.94h-33.58v-15.69h82.93Z"/>
      <path d="M346.02,124.85c-6.94,0-13.27-1.79-18.98-5.36-5.71-3.57-10.26-8.36-13.66-14.38-3.4-6.01-5.09-12.66-5.09-19.96,0-5.53.98-10.7,2.94-15.51s4.67-9.03,8.11-12.68c3.44-3.65,7.46-6.5,12.04-8.56,4.58-2.06,9.46-3.09,14.64-3.09,6.94,0,13.27,1.79,18.98,5.36,5.71,3.57,10.26,8.38,13.66,14.41,3.4,6.04,5.09,12.73,5.09,20.07,0,5.48-.98,10.61-2.94,15.39s-4.67,8.99-8.11,12.64c-3.45,3.65-7.45,6.5-12,8.56-4.55,2.06-9.45,3.09-14.68,3.09ZM346.02,109.15c4.17,0,7.92-1.11,11.24-3.32,3.32-2.21,5.95-5.14,7.88-8.79,1.94-3.65,2.91-7.61,2.91-11.88s-.99-8.4-2.98-12.07c-1.99-3.67-4.64-6.6-7.96-8.79-3.32-2.19-7.02-3.28-11.09-3.28s-7.86,1.11-11.21,3.32c-3.35,2.21-5.99,5.16-7.92,8.83s-2.91,7.67-2.91,12,1.01,8.53,3.02,12.15c2.01,3.62,4.69,6.5,8.04,8.64,3.34,2.14,7,3.21,10.98,3.21Z"/>
      <path d="M429.02,124.85c-6.94,0-13.27-1.79-18.98-5.36-5.71-3.57-10.26-8.36-13.66-14.38-3.4-6.01-5.09-12.66-5.09-19.96,0-5.53.98-10.7,2.94-15.51s4.67-9.03,8.11-12.68c3.44-3.65,7.46-6.5,12.04-8.56,4.58-2.06,9.46-3.09,14.64-3.09,6.94,0,13.27,1.79,18.98,5.36,5.71,3.57,10.26,8.38,13.66,14.41,3.4,6.04,5.09,12.73,5.09,20.07,0,5.48-.98,10.61-2.94,15.39s-4.67,8.99-8.11,12.64c-3.45,3.65-7.45,6.5-12,8.56-4.55,2.06-9.45,3.09-14.68,3.09ZM429.02,109.15c4.17,0,7.92-1.11,11.24-3.32,3.32-2.21,5.95-5.14,7.88-8.79,1.94-3.65,2.91-7.61,2.91-11.88s-.99-8.4-2.98-12.07c-1.99-3.67-4.64-6.6-7.96-8.79-3.32-2.19-7.02-3.28-11.09-3.28s-7.86,1.11-11.21,3.32c-3.35,2.21-5.99,5.16-7.92,8.83s-2.91,7.67-2.91,12,1.01,8.53,3.02,12.15c2.01,3.62,4.69,6.5,8.04,8.64,3.34,2.14,7,3.21,10.98,3.21Z"/>
      <path d="M518.36,63.13h-15.85l-.08,59.76h-15.69l.08-59.76h-12v-15.7h12l-.08-23.69h15.69l.08,23.69h15.85v15.7Z"/>
      <path d="M599.77,75.58v47.31h-15.7v-43.46c0-3.37-.82-6.44-2.45-9.21-1.63-2.77-3.82-4.97-6.56-6.6-2.74-1.63-5.82-2.45-9.24-2.45s-6.36.82-9.13,2.45c-2.77,1.63-4.98,3.84-6.64,6.6-1.66,2.77-2.49,5.84-2.49,9.21v43.46h-15.69V9.7h15.69v45.73c2.62-3.12,5.83-5.58,9.66-7.39,3.82-1.81,7.95-2.72,12.37-2.72,5.58,0,10.66,1.36,15.24,4.08,4.58,2.72,8.21,6.36,10.9,10.94,2.69,4.58,4.04,9.66,4.04,15.24Z"/>
      <path d="M634.25,30.3v17.13h21.28v15.7h-21.28v59.76h-15.69v-59.76h-8.98v-15.7h8.98v-17.13c0-4.12,1.01-7.88,3.02-11.28,2.01-3.4,4.72-6.1,8.11-8.11,3.4-2.01,7.18-3.02,11.36-3.02,3.02,0,5.96.6,8.83,1.81,2.87,1.21,5.43,3.07,7.7,5.58l-11.24,11.09c-.55-.9-1.32-1.6-2.3-2.07-.98-.48-1.97-.72-2.98-.72-1.86,0-3.46.65-4.79,1.96-1.33,1.31-2,2.89-2,4.75Z"/>
      <path d="M776.86,122.89V47.43h15.69v8c2.62-3.12,5.83-5.58,9.66-7.39,3.82-1.81,7.95-2.72,12.37-2.72,2.82,0,5.61.38,8.38,1.13l-6.26,15.85c-1.96-.75-3.92-1.13-5.89-1.13-3.32,0-6.36.82-9.13,2.45-2.77,1.63-4.98,3.84-6.64,6.6-1.66,2.77-2.49,5.84-2.49,9.21v43.46h-15.69Z"/>
      <path d="M883.4,47.43h16.75l-41.35,113.18h-16.68l13.66-37.73-27.09-75.46h17.13l17.81,53.95,19.77-53.95Z"/>
      <path class="cls-17" d="M775.2,85.02l-5.88,2.38c-11.48,2.63-20.45,11.59-23.07,23.07l-2.21,9.64-2.21-9.64c-2.63-11.48-11.59-20.45-23.07-23.07l-9.64-2.21,9.64-2.21c11.48-2.63,20.45-11.59,23.07-23.07l2.21-9.64,2.21,9.64c2.63,11.48,11.59,20.45,23.07,23.07l5.88,2.03Z"/>
      <g>
        <path class="cls-48" d="M147.26,108.75c-10.7-1.28-20.86-15.73-29.8-27.5-9.39-12.58-17.51-25.34-25.02-40.69-3.38-7.46-11.19-21.81-10.04-30.14,1.36-8.11,9.38-8.66,14.5-9.64,4.21-.58,8.41-.85,12.54-.11,4.06.74,6.36,2.72,7.12,7.96.73,5.69,0,11.46-.63,17.3-.61,6.82-3.19,17.31.21,22.51,3.86,5.13,13.05,2.77,18.08,2.54,7.45-.76,14.47-1.55,22.02-2.48,6-.74,12.12-1.54,18.19-2.31,14.18-1.3,29.11-5.24,31.79,1.11,2.33,9.07-17.28,29.73-22.64,35.83-10.02,10.29-23.93,26.64-36.24,25.62h-.08Z"/>
        <path class="cls-4" d="M111.78,67.64c-1.13-5.35-1.27-10.7,1.19-30.52.28-2.27.42-3.28.42-3.28.31-2.25.43-2.87.69-5.44,1.4-14.14,2.25-22.81-2.12-26.59-2.73-2.36-6.52-1.98-13.4-1.28-6.02.61-11.35,1.14-14.15,4.17-10.24,11.05,16.33,52,22.56,61.6,3.89,6,7.35,10.74,9.63,13.78-2.89-5.02-4.18-9.39-4.82-12.43Z"/>
        <path class="cls-48" d="M67.01,26.5c10.42,2.77,18.45,18.49,25.66,31.39,7.54,13.77,13.8,27.54,19.09,43.78,2.3,7.86,8.03,23.16,5.73,31.24-2.48,7.84-10.5,7.26-15.71,7.52-4.25-.01-8.44-.33-12.43-1.65-3.92-1.3-5.92-3.59-5.94-8.88.07-5.74,1.59-11.35,3.05-17.04,1.56-6.67,5.58-16.69,2.94-22.32-3.11-5.62-12.54-4.56-17.54-5.05-7.48-.28-14.55-.49-22.15-.62-6.04-.11-12.21-.17-18.34-.25-14.22-.7-29.55,1.12-31.32-5.54-1.04-9.31,21.26-27.02,27.43-32.31,11.36-8.79,27.42-23.04,39.47-20.31l.08.02Z"/>
        <path class="cls-4" d="M96.39,72.17c.37,5.45-.24,10.77-5.44,30.05-.6,2.21-.88,3.19-.88,3.19-.62,2.19-.83,2.78-1.44,5.29-3.37,13.8-5.42,22.27-1.62,26.63,2.37,2.72,6.18,2.87,13.09,3.14,6.04.24,11.4.45,14.59-2.15,11.68-9.51-8.9-53.77-13.73-64.14-3.02-6.49-5.77-11.66-7.61-14.99,2.16,5.38,2.82,9.88,3.03,12.99Z"/>
      </g>
    </g>
  </g>
</svg>