<?xml version="1.0" encoding="UTF-8"?>
<svg id="Layer_2" data-name="Layer 2" xmlns="http://www.w3.org/2000/svg" viewBox="0 0 909.89 160.61">
  <defs>
    <style>
      .cls-1 {
        fill: #fff;
      }

      .cls-2 {
        fill: #a1c4fa;
      }
    </style>
  </defs>
  <g id="Layer_1-2" data-name="Layer 1">
    <path class="cls-1" d="M695.08,61.98c3.62-2.21,7.62-3.32,12-3.32s8.28,1.1,11.58,3.29c3.29,2.18,5.87,5.14,7.73,8.86,1.43,2.86,2.31,5.98,2.64,9.34,7.02-1.83,13.03-6.06,17.13-11.76v-22.85h-15.69l.68,11.16c-2.77-3.87-6.26-7.05-10.45-9.54-4.21-2.49-9.05-3.74-14.53-3.74s-10.43,1.02-15.13,3.06c-4.7,2.04-8.84,4.84-12.41,8.41-3.57,3.57-6.37,7.74-8.38,12.49-2.01,4.75-3.01,9.82-3.01,15.2s1.03,10.81,3.09,15.66c2.06,4.86,4.94,9.14,8.64,12.87,3.7,3.72,7.98,6.62,12.86,8.71,4.88,2.09,10.09,3.13,15.62,3.13,5.13,0,9.59-1.18,13.36-3.54,3.77-2.37,6.76-5.49,8.98-9.36l.6,10.94h15.77v-24.2c-4.08-5.67-10.06-9.88-17.03-11.73-.21,3.83-1.11,7.36-2.7,10.58-1.84,3.72-4.41,6.68-7.73,8.86-3.32,2.19-7.2,3.29-11.62,3.29s-8.22-1.1-11.81-3.29c-3.6-2.18-6.49-5.13-8.68-8.83-2.19-3.69-3.28-7.83-3.28-12.41s1.05-8.65,3.17-12.37c2.11-3.72,4.98-6.69,8.6-8.91Z"/>
    <path class="cls-1" d="M761.25,95.91v25.08h15.7v-35.74c-6.32,1.83-11.78,5.61-15.7,10.66ZM761.25,45.54v23.73c3.92,5.05,9.38,8.84,15.7,10.67v-34.4h-15.7ZM775.06,20.52c-1.61-1.58-3.57-2.38-5.89-2.38s-4.35.8-5.96,2.38c-1.61,1.59-2.41,3.54-2.41,5.85s.8,4.33,2.41,5.88c1.61,1.56,3.62,2.34,6.04,2.34s4.26-.78,5.85-2.34c1.58-1.55,2.37-3.52,2.37-5.88s-.8-4.26-2.41-5.85Z"/>
    <path class="cls-2" d="M319.08,17.25v15.69h-33.65v89.94h-15.69V32.94h-33.58v-15.69h82.93Z"/>
    <path class="cls-2" d="M355.75,124.85c-6.94,0-13.27-1.79-18.98-5.36-5.71-3.57-10.26-8.36-13.66-14.37-3.4-6.01-5.09-12.66-5.09-19.96,0-5.53.98-10.7,2.94-15.51,1.96-4.8,4.67-9.03,8.11-12.68,3.44-3.65,7.46-6.5,12.04-8.56,4.58-2.06,9.46-3.09,14.64-3.09,6.94,0,13.27,1.79,18.98,5.36,5.71,3.57,10.26,8.38,13.66,14.41,3.4,6.04,5.09,12.73,5.09,20.07,0,5.48-.98,10.61-2.94,15.39-1.96,4.78-4.67,8.99-8.11,12.64-3.45,3.65-7.45,6.5-12,8.56-4.55,2.06-9.45,3.09-14.68,3.09ZM355.75,109.15c4.17,0,7.92-1.11,11.24-3.32,3.32-2.21,5.95-5.14,7.88-8.79,1.94-3.65,2.91-7.61,2.91-11.88s-.99-8.4-2.98-12.07c-1.99-3.67-4.64-6.6-7.96-8.79-3.32-2.19-7.02-3.28-11.09-3.28s-7.86,1.11-11.21,3.32c-3.35,2.21-5.99,5.16-7.92,8.83-1.94,3.67-2.91,7.67-2.91,12s1.01,8.53,3.02,12.15c2.01,3.62,4.69,6.5,8.04,8.64,3.34,2.14,7,3.21,10.98,3.21Z"/>
    <path class="cls-2" d="M438.75,124.85c-6.94,0-13.27-1.79-18.98-5.36-5.71-3.57-10.26-8.36-13.66-14.37-3.4-6.01-5.09-12.66-5.09-19.96,0-5.53.98-10.7,2.94-15.51,1.96-4.8,4.67-9.03,8.11-12.68,3.44-3.65,7.46-6.5,12.04-8.56,4.58-2.06,9.46-3.09,14.64-3.09,6.94,0,13.27,1.79,18.98,5.36,5.71,3.57,10.26,8.38,13.66,14.41,3.4,6.04,5.09,12.73,5.09,20.07,0,5.48-.98,10.61-2.94,15.39-1.96,4.78-4.67,8.99-8.11,12.64-3.45,3.65-7.45,6.5-12,8.56-4.55,2.06-9.45,3.09-14.68,3.09ZM438.75,109.15c4.17,0,7.92-1.11,11.24-3.32,3.32-2.21,5.95-5.14,7.88-8.79,1.94-3.65,2.91-7.61,2.91-11.88s-.99-8.4-2.98-12.07c-1.99-3.67-4.64-6.6-7.96-8.79-3.32-2.19-7.02-3.28-11.09-3.28s-7.86,1.11-11.21,3.32c-3.35,2.21-5.99,5.16-7.92,8.83-1.94,3.67-2.91,7.67-2.91,12s1.01,8.53,3.02,12.15c2.01,3.62,4.69,6.5,8.04,8.64,3.34,2.14,7,3.21,10.98,3.21Z"/>
    <path class="cls-2" d="M528.09,63.13h-15.85l-.08,59.76h-15.69l.08-59.76h-12v-15.69h12l-.08-23.69h15.69l.08,23.69h15.85v15.69Z"/>
    <path class="cls-2" d="M609.51,75.58v47.31h-15.7v-43.46c0-3.37-.82-6.44-2.45-9.21-1.63-2.77-3.82-4.97-6.56-6.6-2.74-1.63-5.82-2.45-9.24-2.45s-6.36.82-9.13,2.45c-2.77,1.64-4.98,3.84-6.64,6.6-1.66,2.77-2.49,5.84-2.49,9.21v43.46h-15.69V9.7h15.69v45.73c2.62-3.12,5.83-5.58,9.66-7.4,3.82-1.81,7.95-2.72,12.37-2.72,5.58,0,10.66,1.36,15.24,4.07,4.58,2.72,8.21,6.36,10.9,10.94,2.69,4.58,4.04,9.66,4.04,15.24Z"/>
    <path class="cls-2" d="M643.99,30.3v17.13h21.28v15.69h-21.28v59.76h-15.69v-59.76h-8.98v-15.69h8.98v-17.13c0-4.12,1.01-7.89,3.02-11.28,2.01-3.4,4.72-6.1,8.11-8.11,3.4-2.01,7.18-3.02,11.36-3.02,3.02,0,5.96.6,8.83,1.81,2.87,1.21,5.43,3.07,7.7,5.58l-11.24,11.09c-.55-.91-1.32-1.6-2.3-2.07-.98-.48-1.97-.72-2.98-.72-1.86,0-3.46.65-4.79,1.96-1.33,1.31-2,2.89-2,4.75Z"/>
    <path class="cls-2" d="M786.59,122.89V47.43h15.69v8c2.62-3.12,5.83-5.58,9.66-7.4,3.82-1.81,7.95-2.72,12.37-2.72,2.82,0,5.61.38,8.38,1.13l-6.26,15.85c-1.96-.75-3.92-1.13-5.89-1.13-3.32,0-6.36.82-9.13,2.45-2.77,1.64-4.98,3.84-6.64,6.6-1.66,2.77-2.49,5.84-2.49,9.21v43.46h-15.69Z"/>
    <path class="cls-2" d="M893.14,47.43h16.75l-41.35,113.18h-16.68l13.66-37.73-27.09-75.46h17.13l17.81,53.95,19.77-53.95Z"/>
    <g>
      <path class="cls-1" d="M147.26,108.75c-10.7-1.28-20.86-15.73-29.8-27.5-9.39-12.58-17.51-25.34-25.02-40.69-3.38-7.46-11.19-21.81-10.04-30.14,1.36-8.11,9.38-8.66,14.5-9.64,4.21-.58,8.41-.85,12.54-.11,4.06.74,6.36,2.72,7.12,7.96.73,5.69,0,11.46-.63,17.3-.61,6.82-3.19,17.31.21,22.51,3.86,5.13,13.05,2.77,18.08,2.54,7.45-.76,14.47-1.55,22.02-2.48,6-.74,12.12-1.54,18.19-2.31,14.18-1.3,29.11-5.24,31.79,1.11,2.33,9.07-17.28,29.73-22.64,35.83-10.02,10.29-23.93,26.64-36.24,25.62h-.08Z"/>
      <path class="cls-2" d="M111.78,67.64c-1.13-5.35-1.27-10.7,1.19-30.52.28-2.27.42-3.28.42-3.28.31-2.25.43-2.87.69-5.44,1.4-14.14,2.25-22.81-2.12-26.59-2.73-2.36-6.52-1.98-13.4-1.28-6.02.61-11.35,1.14-14.15,4.17-10.24,11.05,16.33,52,22.56,61.6,3.89,6,7.35,10.74,9.63,13.78-2.89-5.02-4.18-9.39-4.82-12.43Z"/>
      <path class="cls-1" d="M67.01,26.5c10.42,2.77,18.45,18.49,25.66,31.39,7.54,13.77,13.8,27.54,19.09,43.78,2.3,7.86,8.03,23.16,5.73,31.24-2.48,7.84-10.5,7.26-15.71,7.52-4.25-.01-8.44-.33-12.43-1.65-3.92-1.3-5.92-3.59-5.94-8.88.07-5.74,1.59-11.35,3.05-17.04,1.56-6.67,5.58-16.69,2.94-22.32-3.11-5.62-12.54-4.56-17.54-5.05-7.48-.28-14.55-.49-22.15-.62-6.04-.11-12.21-.17-18.34-.25-14.22-.7-29.55,1.12-31.32-5.54-1.04-9.31,21.26-27.02,27.43-32.31,11.36-8.79,27.42-23.04,39.47-20.31l.08.02Z"/>
      <path class="cls-2" d="M96.39,72.17c.37,5.45-.24,10.77-5.44,30.05-.6,2.21-.88,3.19-.88,3.19-.62,2.19-.83,2.78-1.44,5.29-3.37,13.8-5.42,22.27-1.62,26.63,2.37,2.72,6.18,2.87,13.09,3.14,6.04.24,11.4.45,14.59-2.15,11.68-9.51-8.9-53.77-13.73-64.14-3.02-6.49-5.77-11.66-7.61-14.99,2.16,5.38,2.82,9.88,3.03,12.99Z"/>
    </g>
  </g>
</svg>