<?xml version="1.0" encoding="UTF-8"?>
<svg id="Layer_1" data-name="Layer 1" xmlns="http://www.w3.org/2000/svg" xmlns:xlink="http://www.w3.org/1999/xlink" viewBox="0 0 1080 1080">
  <defs>
    <style>
      .cls-1 {
        fill: url(#linear-gradient-2);
      }

      .cls-2 {
        letter-spacing: 0em;
      }

      .cls-3 {
        fill: #2570ff;
      }

      .cls-4 {
        fill: #fff;
      }

      .cls-5 {
        letter-spacing: 0em;
      }

      .cls-6 {
        fill: #004ec4;
      }

      .cls-7 {
        letter-spacing: -.01em;
      }

      .cls-8 {
        font-family: Urbanist-SemiBold, Urbanist;
        font-size: 150.91px;
        font-weight: 600;
      }

      .cls-9 {
        letter-spacing: -.08em;
      }

      .cls-10 {
        fill: url(#linear-gradient);
      }

      .cls-11 {
        letter-spacing: -.01em;
      }
    </style>
    <linearGradient id="linear-gradient" x1="806.04" y1="596.97" x2="780.8" y2="522.19" gradientUnits="userSpaceOnUse">
      <stop offset=".03" stop-color="#2570ff"/>
      <stop offset=".29" stop-color="#1c68f2"/>
      <stop offset=".77" stop-color="#0455d2"/>
      <stop offset=".85" stop-color="#0052cc"/>
    </linearGradient>
    <linearGradient id="linear-gradient-2" x1="857.93" y1="577.38" x2="832.09" y2="484.98" gradientUnits="userSpaceOnUse">
      <stop offset="0" stop-color="#2570ff"/>
      <stop offset=".72" stop-color="#0556d3"/>
      <stop offset=".85" stop-color="#0052cc"/>
    </linearGradient>
  </defs>
  <g>
    <path class="cls-10" d="M808.03,510.52h15.69v75.46h-15.77l-.6-10.94c-2.21,3.87-5.21,6.99-8.98,9.36-3.77,2.36-8.22,3.55-13.36,3.55-5.53,0-10.74-1.04-15.62-3.13-4.88-2.09-9.17-4.99-12.87-8.72-3.7-3.72-6.58-8.01-8.64-12.87-2.06-4.85-3.09-10.07-3.09-15.66s1.01-10.45,3.02-15.2c2.01-4.75,4.8-8.92,8.38-12.49,3.57-3.57,7.71-6.38,12.41-8.41,4.7-2.04,9.75-3.06,15.13-3.06s10.32,1.25,14.53,3.74c4.2,2.49,7.68,5.67,10.45,9.55l-.68-11.17ZM784.64,572.78c4.43,0,8.3-1.09,11.62-3.28,3.32-2.19,5.9-5.14,7.73-8.87,1.84-3.72,2.75-7.85,2.75-12.37s-.93-8.73-2.79-12.45c-1.86-3.72-4.44-6.68-7.73-8.87-3.29-2.19-7.16-3.28-11.58-3.28s-8.38,1.11-12,3.32c-3.62,2.21-6.49,5.18-8.6,8.9-2.11,3.72-3.17,7.85-3.17,12.37s1.09,8.72,3.28,12.41c2.19,3.7,5.08,6.64,8.68,8.83,3.6,2.19,7.53,3.28,11.81,3.28Z"/>
    <path class="cls-1" d="M846.82,499.58c-2.41,0-4.43-.78-6.04-2.34-1.61-1.56-2.41-3.52-2.41-5.89s.8-4.26,2.41-5.85c1.61-1.58,3.6-2.38,5.96-2.38s4.27.79,5.89,2.38c1.61,1.58,2.41,3.53,2.41,5.85s-.79,4.33-2.38,5.89c-1.58,1.56-3.53,2.34-5.85,2.34ZM838.82,510.52h15.69v75.46h-15.69v-75.46Z"/>
    <text class="cls-8" transform="translate(307.29 585.27)"><tspan class="cls-9" x="0" y="0">T</tspan><tspan class="cls-2" x="83.38" y="0">o</tspan><tspan class="cls-11" x="166.38" y="0">o</tspan><tspan x="249.08" y="0">thf</tspan><tspan x="438.77" y="0" xml:space="preserve">   </tspan><tspan class="cls-7" x="547.42" y="0">r</tspan><tspan class="cls-5" x="602.27" y="0">y</tspan></text>
    <path class="cls-4" d="M865.87,547.58l-9.64,2.21c-11.48,2.63-20.45,11.59-23.07,23.07l-2.21,9.64-2.21-9.64c-2.63-11.48-11.59-20.45-23.07-23.07l-9.64-2.21,9.64-2.21c11.48-2.63,20.45-11.59,23.07-23.07l2.21-9.64,2.21,9.64c2.63,11.48,11.59,20.45,23.07,23.07l9.64,2.21Z"/>
  </g>
  <g>
    <path class="cls-6" d="M234.17,571.14c-10.7-1.28-20.86-15.73-29.8-27.5-9.39-12.58-17.51-25.34-25.02-40.69-3.38-7.46-11.19-21.81-10.04-30.14,1.36-8.11,9.38-8.66,14.5-9.64,4.21-.58,8.41-.85,12.54-.11,4.06.74,6.36,2.72,7.12,7.96.73,5.69,0,11.46-.63,17.3-.61,6.82-3.19,17.31.21,22.51,3.86,5.13,13.05,2.77,18.08,2.54,7.45-.76,14.47-1.55,22.02-2.48,6-.74,12.12-1.54,18.19-2.31,14.18-1.3,29.11-5.24,31.79,1.11,2.33,9.07-17.28,29.73-22.64,35.83-10.02,10.29-23.93,26.64-36.24,25.62h-.08Z"/>
    <path class="cls-3" d="M198.69,530.03c-1.13-5.35-1.27-10.7,1.19-30.52.28-2.27.42-3.28.42-3.28.31-2.25.43-2.87.69-5.44,1.4-14.14,2.25-22.81-2.12-26.59-2.73-2.36-6.52-1.98-13.4-1.28-6.02.61-11.35,1.14-14.15,4.17-10.24,11.05,16.33,52,22.56,61.6,3.89,6,7.35,10.74,9.63,13.78-2.89-5.02-4.18-9.39-4.82-12.43Z"/>
    <path class="cls-6" d="M153.91,488.89c10.42,2.77,18.45,18.49,25.66,31.39,7.54,13.77,13.8,27.54,19.09,43.78,2.3,7.86,8.03,23.16,5.73,31.24-2.48,7.84-10.5,7.26-15.71,7.52-4.25-.01-8.44-.33-12.43-1.65-3.92-1.3-5.92-3.59-5.94-8.88.07-5.74,1.59-11.35,3.05-17.04,1.56-6.67,5.58-16.69,2.94-22.32-3.11-5.62-12.54-4.56-17.54-5.05-7.48-.28-14.55-.49-22.15-.62-6.04-.11-12.21-.17-18.34-.25-14.22-.7-29.55,1.12-31.32-5.54-1.04-9.31,21.26-27.02,27.43-32.31,11.36-8.79,27.42-23.04,39.47-20.31l.08.02Z"/>
    <path class="cls-3" d="M183.3,534.55c.37,5.45-.24,10.77-5.44,30.05-.6,2.21-.88,3.19-.88,3.19-.62,2.19-.83,2.78-1.44,5.29-3.37,13.8-5.42,22.27-1.62,26.63,2.37,2.72,6.18,2.87,13.09,3.14,6.04.24,11.4.45,14.59-2.15,11.68-9.51-8.9-53.77-13.73-64.14-3.02-6.49-5.77-11.66-7.61-14.99,2.16,5.38,2.82,9.88,3.03,12.99Z"/>
  </g>
</svg>